<svg width="33" height="32" viewBox="0 0 33 32" fill="none" xmlns="http://www.w3.org/2000/svg">
<rect x="0.5" width="32" height="32" rx="16" fill="#121C2D"/>
<path d="M9.43024 16C9.43024 12.6675 9.43024 11.0006 10.4654 9.9654C11.5006 8.93024 13.1668 8.93024 16.5 8.93024C19.8325 8.93024 21.4994 8.93024 22.5346 9.9654C23.5698 11.0006 23.5698 12.6668 23.5698 16C23.5698 19.3325 23.5698 20.9994 22.5346 22.0346C21.4994 23.0698 19.8332 23.0698 16.5 23.0698C13.1675 23.0698 11.5006 23.0698 10.4654 22.0346C9.43024 20.9994 9.43024 19.3332 9.43024 16Z" stroke="white" stroke-width="1.11628" stroke-linecap="round" stroke-linejoin="round"/>
<path d="M20.599 11.907H20.5915M19.8488 16C19.8488 16.8882 19.496 17.74 18.868 18.368C18.24 18.996 17.3882 19.3488 16.5 19.3488C15.6118 19.3488 14.76 18.996 14.132 18.368C13.504 17.74 13.1512 16.8882 13.1512 16C13.1512 15.1118 13.504 14.26 14.132 13.632C14.76 13.004 15.6118 12.6512 16.5 12.6512C17.3882 12.6512 18.24 13.004 18.868 13.632C19.496 14.26 19.8488 15.1118 19.8488 16Z" stroke="white" stroke-width="1.11628" stroke-linecap="round" stroke-linejoin="round"/>
</svg>
