<svg width="24" height="24" viewBox="0 0 24 24" fill="none" xmlns="http://www.w3.org/2000/svg">
<rect width="24" height="24" rx="12" fill="#008ED6"/>
<path d="M18.6467 16.22C18.6467 16.46 18.5933 16.7066 18.48 16.9466C18.3667 17.1866 18.22 17.4133 18.0267 17.6266C17.7 17.9866 17.34 18.2466 16.9333 18.4133C16.5333 18.58 16.1 18.6666 15.6333 18.6666C14.9533 18.6666 14.2267 18.5066 13.46 18.18C12.6933 17.8533 11.9267 17.4133 11.1667 16.86C10.4 16.3 9.67334 15.68 8.98001 14.9933C8.29334 14.3 7.67334 13.5733 7.12001 12.8133C6.57334 12.0533 6.13334 11.2933 5.81334 10.54C5.49334 9.77998 5.33334 9.05331 5.33334 8.35998C5.33334 7.90665 5.41334 7.47331 5.57334 7.07331C5.73334 6.66665 5.98668 6.29331 6.34001 5.95998C6.76668 5.53998 7.23334 5.33331 7.72668 5.33331C7.91334 5.33331 8.10001 5.37331 8.26668 5.45331C8.44001 5.53331 8.59334 5.65331 8.71334 5.82665L10.26 8.00665C10.38 8.17331 10.4667 8.32665 10.5267 8.47331C10.5867 8.61331 10.62 8.75331 10.62 8.87998C10.62 9.03998 10.5733 9.19998 10.48 9.35331C10.3933 9.50665 10.2667 9.66665 10.1067 9.82665L9.60001 10.3533C9.52668 10.4266 9.49334 10.5133 9.49334 10.62C9.49334 10.6733 9.50001 10.72 9.51334 10.7733C9.53334 10.8266 9.55334 10.8666 9.56668 10.9066C9.68668 11.1266 9.89334 11.4133 10.1867 11.76C10.4867 12.1066 10.8067 12.46 11.1533 12.8133C11.5133 13.1666 11.86 13.4933 12.2133 13.7933C12.56 14.0866 12.8467 14.2866 13.0733 14.4066C13.1067 14.42 13.1467 14.44 13.1933 14.46C13.2467 14.48 13.3 14.4866 13.36 14.4866C13.4733 14.4866 13.56 14.4466 13.6333 14.3733L14.14 13.8733C14.3067 13.7066 14.4667 13.58 14.62 13.5C14.7733 13.4066 14.9267 13.36 15.0933 13.36C15.22 13.36 15.3533 13.3866 15.5 13.4466C15.6467 13.5066 15.8 13.5933 15.9667 13.7066L18.1733 15.2733C18.3467 15.3933 18.4667 15.5333 18.54 15.7C18.6067 15.8666 18.6467 16.0333 18.6467 16.22Z" stroke="white" stroke-miterlimit="10"/>
</svg>
